<?xml version="1.0" encoding="utf-8"?>
<!-- Generator: Adobe Illustrator 27.5.0, SVG Export Plug-In . SVG Version: 6.00 Build 0)  -->
<svg version="1.1" xmlns="http://www.w3.org/2000/svg" xmlns:xlink="http://www.w3.org/1999/xlink" x="0px" y="0px"
	 viewBox="0 0 3710 3710" style="enable-background:new 0 0 3710 3710;" xml:space="preserve">
<g id="Background">
	<g>
		<g>
			<rect style="fill:transparent;" width="3710" height="3710"/>
		</g>
	</g>
</g>
<g id="Illustration">
	<g>
		<path style="fill:transparent;" d="M3204.075,1631.257c-75.061-491.309-382.81-1094.917-990.803-1158.085
			c0,0-461.617-56.149-916.669,28.95c-270.074,50.506-506.89,200.852-656.737,416.936
			c-149.849,216.085-199.903,479.57-139.156,730.771c39.455,163.157,66.116,332.019,58.799,499.673
			c-12.734,291.786-5.408,564.146,277.764,738.159c252.839,155.374,571.042,292.408,874.611,316.41
			c206.304,16.311,437.66-10.084,636.498-63.795C3361.702,2866.548,3279.135,2122.566,3204.075,1631.257z"/>
		<g>
			<g>
				<g>
					<defs>
						<path id="SVGID_1_" d="M1556.468,2118.337c156.986-168.068,128.877-458.586,26.43-519.105
							c-53.285-31.478-104.631,12.293-155.331-27.933c-56.173-44.569-20.911-120.33-55.805-265.684
							c-18.028-75.101-50.723-211.289-140.011-244.962c-88.546-33.393-144.469,67.325-241.724,36.663
							c-91.962-28.993-76.911-130.065-195.484-198.848c-11.029-6.398-136.003-76.886-215.6-24.65
							c-80.867,53.068-86.335,214.061-22.82,303.053c57.706,80.851,155.392,78.511,159.51,131.543
							c4.538,58.441-112.604,80.426-113.707,140.909c-1.594,87.425,241.992,105.269,271.947,237.426
							c17.615,77.713-58.717,106.379-57.984,208.491c0.944,131.79,129.253,245.846,231.731,295.724
							C1196.133,2263.247,1420.4,2264.011,1556.468,2118.337z"/>
					</defs>
					
						<linearGradient id="SVGID_00000099636069555555976840000018271158494632086919_" gradientUnits="userSpaceOnUse" x1="1177.7825" y1="1405.0475" x2="3017.7288" y2="-137.5323">
						<stop  offset="0.0036" style="stop-color:#E38DDD"/>
						<stop  offset="1" style="stop-color:#9571F6"/>
					</linearGradient>
					
						<use xlink:href="#SVGID_1_"  style="overflow:visible;fill:url(#SVGID_00000099636069555555976840000018271158494632086919_);"/>
					<clipPath id="SVGID_00000009565088230249297530000008895263947115718042_">
						<use xlink:href="#SVGID_1_"  style="overflow:visible;"/>
					</clipPath>
					<g style="opacity:0.7;clip-path:url(#SVGID_00000009565088230249297530000008895263947115718042_);">
						<path style="fill:#FFFFFF;" d="M1486.394,2259.987l6.595-3.106c-120.26-255.357-247.938-489.283-379.49-695.283
							c-105.266-164.836-213.237-312.269-320.914-438.202C609.091,908.792,488.316,829.974,487.118,829.203l-3.944,6.13
							c1.191,0.768,121.327,79.231,304.214,293.201C956.197,1326.035,1214.499,1682.651,1486.394,2259.987z"/>
						<path style="fill:#FFFFFF;" d="M809.451,1144.591c-2.283-225.921-107.892-390.268-108.959-391.901l-6.104,3.984
							c1.057,1.617,105.513,164.285,107.773,387.991L809.451,1144.591z"/>
						<path style="fill:#FFFFFF;" d="M1132.952,1590.749c74.207-234.669,78.848-391.897,69.672-482.473
							c-9.995-98.657-37.375-141.041-38.535-142.797l-6.085,4.016c0.277,0.42,27.728,43.133,37.448,140.325
							c8.979,89.806,4.219,245.76-69.452,478.731L1132.952,1590.749z"/>
						<path style="fill:#FFFFFF;" d="M1385.865,2042.59c218.622-370.604,181.189-621.534,180.786-624.025l-7.196,1.166
							c0.101,0.626,9.609,65.699-9.338,177.081c-16.685,98.078-59.815,254.388-170.53,442.075L1385.865,2042.59z"/>
						<path style="fill:#FFFFFF;" d="M1013.897,1541.686c25.231-0.528,50.855-2.437,76.749-5.992l-0.992-7.222
							c-169.189,23.228-327.703-24.533-430.879-68.692c-111.849-47.871-184.475-101.869-185.194-102.409l-4.373,5.834
							c0.728,0.545,74.054,55.065,186.698,103.277C744.164,1504.256,872.634,1544.644,1013.897,1541.686z"/>
						<path style="fill:#FFFFFF;" d="M1297.137,1962.594c13.623-0.285,27.418-1.053,41.399-2.349l-0.674-7.258
							c-177.285,16.434-326.539-53.157-420.537-114.429c-101.927-66.441-162.563-137.592-163.164-138.303l-5.569,4.705
							c0.608,0.719,61.939,72.686,164.753,139.706C1000.911,1901.745,1136.003,1965.968,1297.137,1962.594z"/>
					</g>
				</g>
			</g>
			<g>
				<g>
					<defs>
						<path id="SVGID_00000003082883858317089630000017395332695746194878_" d="M1545.843,2250.277
							c-254.893-27.637-442.633-293.401-400.183-419.074c22.079-65.366,97.295-65.783,110.823-136.655
							c14.988-78.522-69.934-116.823-146.277-264.956c-39.445-76.536-110.973-215.327-60.093-308.754
							c50.458-92.651,170.991-48.315,230.791-145c56.545-91.422-29.736-165.807,20.314-310.197
							c4.656-13.43,58.869-163.919,164.101-177.753c106.91-14.056,228.718,117.9,239.867,239.276
							c10.129,110.273-74.057,179.405-38.932,227.182c38.709,52.649,153.623-14.058,198.58,36.209
							c64.984,72.658-127.702,265.036-56.795,398.429c41.695,78.44,149.978,46.556,173.032,158.036
							c37.162,179.698,18.129,233.017-32.093,349.727C1876.196,2065.886,1766.773,2274.231,1545.843,2250.277z"/>
					</defs>
					
						<linearGradient id="SVGID_00000128447973401610315680000001167648640780498601_" gradientUnits="userSpaceOnUse" x1="1032.4858" y1="1369.5117" x2="2000.525" y2="1369.5117">
						<stop  offset="0" style="stop-color:#FF9085"/>
						<stop  offset="1" style="stop-color:#FB6FBB"/>
					</linearGradient>
					
						<use xlink:href="#SVGID_00000003082883858317089630000017395332695746194878_"  style="overflow:visible;fill:url(#SVGID_00000128447973401610315680000001167648640780498601_);"/>
					<clipPath id="SVGID_00000142866407121254857890000002912726147723306683_">
						<use xlink:href="#SVGID_00000003082883858317089630000017395332695746194878_"  style="overflow:visible;"/>
					</clipPath>
					<g style="opacity:0.7;clip-path:url(#SVGID_00000142866407121254857890000002912726147723306683_);">
						<path style="fill:#FFFFFF;" d="M1708.121,2318.873l-7.829,2.178c-84.336-303.154-146.81-593.612-185.684-863.31
							c-31.105-215.807-47.258-418.888-48.009-603.602c-1.279-314.773,43.326-469.238,43.776-470.762l7.793,2.305
							c-0.446,1.515-44.77,155.217-43.44,469.012C1475.957,1144.335,1517.444,1633.473,1708.121,2318.873z"/>
						<path style="fill:#FFFFFF;" d="M1467.787,884.311c-162.525-192.421-192.984-408.065-193.272-410.221l8.054-1.079
							c0.285,2.134,30.495,215.521,191.427,406.056L1467.787,884.311z"/>
						<path style="fill:#FFFFFF;" d="M1519.402,1496.514c-233.478-144.129-351.847-273.509-410.031-356.666
							c-63.375-90.578-71.109-146.297-71.408-148.623l8.061-1.038c0.072,0.556,7.985,56.604,70.526,145.745
							c57.79,82.365,175.332,210.582,407.12,353.667L1519.402,1496.514z"/>
						<path style="fill:#FFFFFF;" d="M1634.757,2062.132c-454.367-153.786-605.417-392.91-606.89-395.307l6.925-4.254
							c0.37,0.602,39.71,62.469,136.785,142.724c85.482,70.668,235.68,171.256,465.784,249.14L1634.757,2062.132z"/>
						<path style="fill:#FFFFFF;" d="M1584.215,1368.425c-21.688,17.92-44.714,34.961-69.166,50.808l-4.42-6.82
							c159.765-103.544,258.842-259.257,313.817-371.647c59.594-121.838,81.611-220.298,81.825-221.277l7.94,1.743
							c-0.218,0.99-22.445,100.401-82.463,223.105C1784.721,1140.476,1705.644,1268.094,1584.215,1368.425z"/>
						<path style="fill:#FFFFFF;" d="M1651.444,1930.001c-11.71,9.675-23.917,19.069-36.666,28.152l-4.714-6.619
							c161.656-115.173,237.024-282.578,271.791-402.737c37.699-130.296,37.106-234.511,37.097-235.549l8.127-0.082
							c0.01,1.05,0.611,106.46-37.417,237.89C1857.274,1662.992,1789.955,1815.556,1651.444,1930.001z"/>
					</g>
				</g>
			</g>
		</g>
		<g>
			<g>
				
					<linearGradient id="SVGID_00000058576808522490085600000008434292727580953483_" gradientUnits="userSpaceOnUse" x1="1411.905" y1="1537.3792" x2="1692.1138" y2="1973.2599" gradientTransform="matrix(0.931 -0.365 0.365 0.931 -60.9869 340.9064)">
					<stop  offset="0.0036" style="stop-color:#FFFFFF"/>
					<stop  offset="1" style="stop-color:#F4F7FA"/>
				</linearGradient>
				<polygon style="fill:url(#SVGID_00000058576808522490085600000008434292727580953483_);" points="2386.022,2054.639 
					1858.107,2149.807 1599.769,716.747 2127.684,621.579 				"/>
				
					<linearGradient id="SVGID_00000109723763136053124970000015581211263605923468_" gradientUnits="userSpaceOnUse" x1="2591.0981" y1="861.4761" x2="2826.8655" y2="2046.5206" gradientTransform="matrix(0.9841 -0.1774 0.1774 0.9841 -915.8616 208.1527)">
					<stop  offset="0" style="stop-color:#FFC444"/>
					<stop  offset="0.9964" style="stop-color:#F36F56"/>
				</linearGradient>
				<polygon style="fill:url(#SVGID_00000109723763136053124970000015581211263605923468_);" points="2108.99,938.479 
					1710.801,1010.26 1667.339,769.161 2065.528,697.38 				"/>
				
					<linearGradient id="SVGID_00000127002679903935438010000010796870712102664604_" gradientUnits="userSpaceOnUse" x1="2517.0215" y1="775.871" x2="2752.7888" y2="1960.916" gradientTransform="matrix(0.9841 -0.1774 0.1774 0.9841 -915.8616 208.1527)">
					<stop  offset="0" style="stop-color:#FFC444"/>
					<stop  offset="0.9964" style="stop-color:#F36F56"/>
				</linearGradient>
				<polygon style="fill:url(#SVGID_00000127002679903935438010000010796870712102664604_);" points="2159.858,1220.653 
					1761.669,1292.435 1718.206,1051.336 2116.396,979.554 				"/>
				
					<linearGradient id="SVGID_00000039834815763455417350000000813918906232274320_" gradientUnits="userSpaceOnUse" x1="2461.7068" y1="784.5688" x2="2697.4741" y2="1969.6134" gradientTransform="matrix(0.9841 -0.1774 0.1774 0.9841 -915.8616 208.1527)">
					<stop  offset="0" style="stop-color:#FFC444"/>
					<stop  offset="0.9964" style="stop-color:#F36F56"/>
				</linearGradient>
				<polygon style="fill:url(#SVGID_00000039834815763455417350000000813918906232274320_);" points="2210.726,1502.828 
					1812.537,1574.609 1769.074,1333.511 2167.263,1261.729 				"/>
				
					<linearGradient id="SVGID_00000170273936257916331290000014567748962732504211_" gradientUnits="userSpaceOnUse" x1="2422.772" y1="875.5988" x2="2658.5396" y2="2060.6438" gradientTransform="matrix(0.9841 -0.1774 0.1774 0.9841 -915.8616 208.1527)">
					<stop  offset="0" style="stop-color:#FFC444"/>
					<stop  offset="0.9964" style="stop-color:#F36F56"/>
				</linearGradient>
				<polygon style="fill:url(#SVGID_00000170273936257916331290000014567748962732504211_);" points="2261.594,1785.002 
					1863.404,1856.784 1819.941,1615.685 2218.131,1543.904 				"/>
				<g style="opacity:0.3;">
					
						<linearGradient id="SVGID_00000067201493413845280890000013659017930734092447_" gradientUnits="userSpaceOnUse" x1="1939.1536" y1="1049.5022" x2="1610.0233" y2="1854.5369" gradientTransform="matrix(0.931 -0.365 0.365 0.931 -60.9869 340.9064)">
						<stop  offset="0" style="stop-color:#FFC444"/>
						<stop  offset="0.9964" style="stop-color:#F36F56"/>
					</linearGradient>
					<path style="fill:url(#SVGID_00000067201493413845280890000013659017930734092447_);" d="M2127.684,621.58l-280.635,50.59
						c40.378,42.263,76.665,95.219,96.224,160.443c37.217,124.108-12.464,204.744-18.655,372.762
						c-6.461,175.354,41.392,257.442,78.886,420.505c27.356,118.974,49.422,282.086,34.126,491.565l348.393-62.805L2127.684,621.58z
						"/>
				</g>
			</g>
			<g>
				
					<linearGradient id="SVGID_00000029726610373760682700000014309749686485632176_" gradientUnits="userSpaceOnUse" x1="2091.0684" y1="1249.3549" x2="1677.4336" y2="1998.7889" gradientTransform="matrix(0.931 -0.365 0.365 0.931 -60.9869 340.9064)">
					<stop  offset="0.0036" style="stop-color:#FFFFFF"/>
					<stop  offset="1" style="stop-color:#F4F7FA"/>
				</linearGradient>
				<polygon style="fill:url(#SVGID_00000029726610373760682700000014309749686485632176_);" points="2273.75,2198.723 
					1765.422,2027.39 2230.517,647.504 2738.844,818.837 				"/>
				
					<linearGradient id="SVGID_00000000932120786022651960000009269159347166425785_" gradientUnits="userSpaceOnUse" x1="6046.4155" y1="-438.1668" x2="6232.2397" y2="559.4157" gradientTransform="matrix(0.9476 0.3194 -0.3194 0.9476 -3421.5442 -827.7459)">
					<stop  offset="0.0036" style="stop-color:#E38DDD"/>
					<stop  offset="1" style="stop-color:#9571F6"/>
				</linearGradient>
				<polygon style="fill:url(#SVGID_00000000932120786022651960000009269159347166425785_);" points="2569.582,1087.398 
					2186.167,958.167 2264.415,726.014 2647.83,855.245 				"/>
				
					<linearGradient id="SVGID_00000058557690316719924470000006427870454627999402_" gradientUnits="userSpaceOnUse" x1="5994.7993" y1="-428.5498" x2="6180.623" y2="569.0327" gradientTransform="matrix(0.9476 0.3194 -0.3194 0.9476 -3421.5442 -827.7459)">
					<stop  offset="0.0036" style="stop-color:#E38DDD"/>
					<stop  offset="1" style="stop-color:#9571F6"/>
				</linearGradient>
				<polygon style="fill:url(#SVGID_00000058557690316719924470000006427870454627999402_);" points="2478.003,1359.103 
					2094.589,1229.872 2172.836,997.719 2556.251,1126.95 				"/>
				
					<linearGradient id="SVGID_00000055702570056395374700000004374743302715182003_" gradientUnits="userSpaceOnUse" x1="5943.1831" y1="-418.9314" x2="6129.0073" y2="578.6511" gradientTransform="matrix(0.9476 0.3194 -0.3194 0.9476 -3421.5442 -827.7459)">
					<stop  offset="0.0036" style="stop-color:#E38DDD"/>
					<stop  offset="1" style="stop-color:#9571F6"/>
				</linearGradient>
				<polygon style="fill:url(#SVGID_00000055702570056395374700000004374743302715182003_);" points="2386.424,1630.807 
					2003.01,1501.576 2081.258,1269.423 2464.672,1398.654 				"/>
				
					<linearGradient id="SVGID_00000028313819012716058440000009331263652284066212_" gradientUnits="userSpaceOnUse" x1="5857.5181" y1="-592.1022" x2="6043.3423" y2="405.4803" gradientTransform="matrix(0.9476 0.3194 -0.3194 0.9476 -3421.5442 -827.7459)">
					<stop  offset="0.0036" style="stop-color:#E38DDD"/>
					<stop  offset="1" style="stop-color:#9571F6"/>
				</linearGradient>
				<polygon style="fill:url(#SVGID_00000028313819012716058440000009331263652284066212_);" points="2294.846,1902.512 
					1911.431,1773.281 1989.679,1541.128 2373.093,1670.359 				"/>
				<g style="opacity:0.3;">
					
						<linearGradient id="SVGID_00000138532206869469511580000011017256433353105570_" gradientUnits="userSpaceOnUse" x1="2179.3474" y1="1298.0724" x2="1765.7114" y2="2047.5085" gradientTransform="matrix(0.931 -0.365 0.365 0.931 -60.9869 340.9064)">
						<stop  offset="0.0036" style="stop-color:#E38DDD"/>
						<stop  offset="1" style="stop-color:#9571F6"/>
					</linearGradient>
					<path style="fill:url(#SVGID_00000138532206869469511580000011017256433353105570_);" d="M2738.844,818.837l-334.79-112.842
						c29.936,90.385,25.383,158.09,13.117,206.535c-34.461,136.116-139.918,160.696-210.329,322.516
						c-66.025,151.739-28.937,257.997-34.852,386.278c-5.63,122.05-51.021,282.056-211.803,471.712l313.563,105.688
						L2738.844,818.837z"/>
				</g>
			</g>
			<g>
				
					<linearGradient id="SVGID_00000150098448160232760570000015862931394242034816_" gradientUnits="userSpaceOnUse" x1="1895.189" y1="1897.5587" x2="2024.1802" y2="2373.4905" gradientTransform="matrix(0.931 -0.365 0.365 0.931 -60.9869 340.9064)">
					<stop  offset="0.0036" style="stop-color:#FFFFFF"/>
					<stop  offset="1" style="stop-color:#F4F7FA"/>
				</linearGradient>
				<polygon style="fill:url(#SVGID_00000150098448160232760570000015862931394242034816_);" points="2157.279,2262.612 
					1794.683,1867.295 2867.795,883.004 3230.392,1278.321 				"/>
				
					<linearGradient id="SVGID_00000140733465199862499460000018225503007988647824_" gradientUnits="userSpaceOnUse" x1="8469.1953" y1="-3149.8098" x2="8655.0322" y2="-2152.1589" gradientTransform="matrix(0.676 0.7369 -0.7369 0.676 -5115.9189 -2943.9634)">
					<stop  offset="0" style="stop-color:#FF9085"/>
					<stop  offset="1" style="stop-color:#FB6FBB"/>
				</linearGradient>
				<polygon style="fill:url(#SVGID_00000140733465199862499460000018225503007988647824_);" points="2952.564,1431.9 
					2679.07,1133.725 2859.611,968.128 3133.105,1266.302 				"/>
				
					<linearGradient id="SVGID_00000003105598865834504270000003302169670519827357_" gradientUnits="userSpaceOnUse" x1="8406.1689" y1="-3201.3352" x2="8592.0059" y2="-2203.6843" gradientTransform="matrix(0.676 0.7369 -0.7369 0.676 -5115.9189 -2943.9634)">
					<stop  offset="0" style="stop-color:#FF9085"/>
					<stop  offset="1" style="stop-color:#FB6FBB"/>
				</linearGradient>
				<polygon style="fill:url(#SVGID_00000003105598865834504270000003302169670519827357_);" points="2741.264,1625.71 
					2467.77,1327.536 2648.311,1161.938 2921.805,1460.112 				"/>
				
					<linearGradient id="SVGID_00000024704917524400761740000007852635180553374141_" gradientUnits="userSpaceOnUse" x1="8347.8721" y1="-3227.4678" x2="8533.709" y2="-2229.8167" gradientTransform="matrix(0.676 0.7369 -0.7369 0.676 -5115.9189 -2943.9634)">
					<stop  offset="0" style="stop-color:#FF9085"/>
					<stop  offset="1" style="stop-color:#FB6FBB"/>
				</linearGradient>
				<polygon style="fill:url(#SVGID_00000024704917524400761740000007852635180553374141_);" points="2529.965,1819.52 
					2256.47,1521.346 2437.011,1355.748 2710.506,1653.923 				"/>
				
					<linearGradient id="SVGID_00000160168651053460434410000016243359300587669399_" gradientUnits="userSpaceOnUse" x1="8284.9482" y1="-3278.438" x2="8470.7852" y2="-2280.7869" gradientTransform="matrix(0.676 0.7369 -0.7369 0.676 -5115.9189 -2943.9634)">
					<stop  offset="0" style="stop-color:#FF9085"/>
					<stop  offset="1" style="stop-color:#FB6FBB"/>
				</linearGradient>
				<polygon style="fill:url(#SVGID_00000160168651053460434410000016243359300587669399_);" points="2318.665,2013.331 
					2045.17,1715.156 2225.711,1549.559 2499.206,1847.733 				"/>
				<g style="opacity:0.3;">
					
						<linearGradient id="SVGID_00000023251342056186950040000007134950032653224889_" gradientUnits="userSpaceOnUse" x1="2435.6719" y1="1529.0902" x2="2053.1648" y2="2133.9861" gradientTransform="matrix(0.931 -0.365 0.365 0.931 -60.9869 340.9064)">
						<stop  offset="0" style="stop-color:#FF9085"/>
						<stop  offset="1" style="stop-color:#FB6FBB"/>
					</linearGradient>
					<path style="fill:url(#SVGID_00000023251342056186950040000007134950032653224889_);" d="M3230.391,1278.321l-232.708-253.708
						c-8.965,131.145-52.8,205.277-93.3,249.635c-94.675,103.691-199.236,75.538-337.739,184.901
						c-129.874,102.55-147.381,213.725-213.196,323.995c-58.35,97.763-162.728,208.258-363.84,296.666l167.671,182.802
						L3230.391,1278.321z"/>
				</g>
			</g>
			
				<linearGradient id="SVGID_00000129893845178707102810000008018476856768378519_" gradientUnits="userSpaceOnUse" x1="2553.8511" y1="2280.8721" x2="2667.9453" y2="2280.8721" gradientTransform="matrix(0.9841 -0.1774 0.1774 0.9841 -915.8616 208.1527)">
				<stop  offset="0.0036" style="stop-color:#E38DDD"/>
				<stop  offset="1" style="stop-color:#9571F6"/>
			</linearGradient>
			<circle style="fill:url(#SVGID_00000129893845178707102810000008018476856768378519_);" cx="2058.15" cy="1989.586" r="57.045"/>
		</g>
		<g>
			<g>
				<path style="fill:#97A6B7;" d="M2245.23,3118.218c-36.633-12.151-64.012-43.24-71.733-81.453l-53.318-263.885l-456.094,16.196
					l-56.132,274.909c-7.862,38.501,23.608,77.127,59.85,91.307l190.82,74.661c35.491,13.886,73.641,19.417,111.559,16.174
					l403.271-34.499c11.789-1.008,21.245-10.275,22.616-22.164c1.372-11.888,9.632-25.237-1.609-28.966L2245.23,3118.218z"/>
				
					<linearGradient id="SVGID_00000158717151726886963230000017197555997946760323_" gradientUnits="userSpaceOnUse" x1="1959.9285" y1="3612.9353" x2="2016.7997" y2="3063.176">
					<stop  offset="0" style="stop-color:#444B8C"/>
					<stop  offset="0.9964" style="stop-color:#26264F"/>
				</linearGradient>
				<path style="fill:url(#SVGID_00000158717151726886963230000017197555997946760323_);" d="M2249.743,3102.169
					c-36.596-11.998-63.948-42.698-71.661-80.429l-53.264-260.568l-444.976,16.01l-56.076,271.453
					c-7.853,38.017,12.926,76.14,49.132,90.142l190.628,73.722c35.456,13.712,73.567,19.173,111.447,15.97l402.865-34.065
					c11.777-0.996,21.224-10.146,22.594-21.885c1.37-11.739-5.714-22.82-16.945-26.501L2249.743,3102.169z"/>
			</g>
			
				<linearGradient id="SVGID_00000165931421767577153750000017088340820900034208_" gradientUnits="userSpaceOnUse" x1="1565.2513" y1="2079.0046" x2="964.9379" y2="2148.5142">
				<stop  offset="0" style="stop-color:#444B8C"/>
				<stop  offset="0.3946" style="stop-color:#383C74"/>
				<stop  offset="0.9964" style="stop-color:#26264F"/>
			</linearGradient>
			<path style="fill:url(#SVGID_00000165931421767577153750000017088340820900034208_);" d="M732.119,2948.271
				c-49.46,2.948-89.924-29.138-89.924-71.542V1348.407c0-42.403,40.463-75.149,89.924-73.006l2287.338,99.108
				c36.312,1.573,65.716,32.189,65.716,68.252v1299.826c0,36.064-29.403,67.158-65.716,69.323L732.119,2948.271z"/>
			
				<linearGradient id="SVGID_00000167395687841330831600000015469137305710059687_" gradientUnits="userSpaceOnUse" x1="2586.9324" y1="976.5882" x2="975.5692" y2="3428.386">
				<stop  offset="0" style="stop-color:#444B8C"/>
				<stop  offset="0.9964" style="stop-color:#26264F"/>
			</linearGradient>
			<path style="fill:url(#SVGID_00000167395687841330831600000015469137305710059687_);" d="M752.676,2948.271
				c-49.46,2.948-89.924-29.138-89.924-71.542V1348.407c0-42.403,40.463-75.149,89.924-73.006l2287.338,99.108
				c36.313,1.573,65.716,32.189,65.716,68.252v1299.826c0,36.064-29.403,67.158-65.716,69.323L752.676,2948.271z"/>
			<path style="opacity:0.3;fill:#D8DEE8;" d="M3040.014,1405.1l-2287.338-94.097c-26.442-1.088-47.94,16.384-47.94,39.026v1188.632
				v335.762c0,22.643,21.498,39.763,47.94,38.245l2287.338-131.349c19.463-1.118,35.201-17.707,35.201-37.057v-297.135V1441.584
				C3075.216,1422.234,3059.478,1405.901,3040.014,1405.1z"/>
			<path style="fill:#D8DEE8;" d="M3051.408,1440.755V2655.38c0,7.551-4.981,13.997-12.564,14.375l-2287.086,113.08
				c-10.299,0.506-18.404-6.256-18.404-15.04V1351.151c0-8.784,8.695-15.64,18.994-15.229l2286.334,90.584
				C3046.266,1426.822,3051.408,1433.204,3051.408,1440.755z"/>
			<g>
				<path style="opacity:0.7;fill:#FFFFFF;" d="M3053.539,1442.215l1.277,204.482L733.355,1601.83v-250.739
					c0-8.749,8.548-15.578,18.67-15.169l2287.759,91.832C3047.504,1428.08,3053.485,1434.557,3053.539,1442.215z"/>
				<g style="opacity:0.5;">
					<polygon style="fill:#FFFFFF;" points="2221.572,2226.248 869.794,2249.232 869.227,1701.035 2216.158,1719.736 					"/>
					<polygon style="fill:#FFFFFF;" points="2960.338,2213.687 2299.136,2224.929 2293.469,1720.809 2952.615,1729.961 					"/>
					<polygon style="fill:#FFFFFF;" points="2966.105,2574.915 870.218,2658.935 869.868,2321.136 2961.35,2277.101 					"/>
				</g>
			</g>
		</g>
		<g>
			<g>
				
					<linearGradient id="SVGID_00000041259010349595875080000015444455065686507141_" gradientUnits="userSpaceOnUse" x1="2.195" y1="2293.7363" x2="1214.2366" y2="2293.7363" gradientTransform="matrix(0.955 -0.2967 0.2967 0.955 -171.6461 185.0003)">
					<stop  offset="0" style="stop-color:#AB316D"/>
					<stop  offset="1" style="stop-color:#792D3D"/>
				</linearGradient>
				<path style="fill:url(#SVGID_00000041259010349595875080000015444455065686507141_);" d="M1713.013,2158.553
					c5.44,17.51-3.22,34.43-18.876,39.293L593.329,2539.814c-15.656,4.863-32.378-4.171-37.818-21.681l-88.643-285.345
					c-5.44-17.51,2.842-35.648,18.498-40.511l1100.808-341.968c15.656-4.863,32.757,5.389,38.196,22.899L1713.013,2158.553z"/>
				
					<linearGradient id="SVGID_00000003104477775781996100000003451717152636447394_" gradientUnits="userSpaceOnUse" x1="35.2779" y1="2293.7373" x2="1247.3193" y2="2293.7373" gradientTransform="matrix(0.955 -0.2967 0.2967 0.955 -171.6461 185.0003)">
					<stop  offset="0" style="stop-color:#FF9085"/>
					<stop  offset="1" style="stop-color:#FB6FBB"/>
				</linearGradient>
				<path style="fill:url(#SVGID_00000003104477775781996100000003451717152636447394_);" d="M1655.966,1863.397l88.646,285.354
					c5.434,17.491-3.228,34.417-18.882,39.281L624.926,2529.998c-15.654,4.863-32.382-4.176-37.816-21.667l-88.646-285.355
					c-5.443-17.521,2.844-35.653,18.499-40.516l1100.803-341.966C1633.42,1835.631,1650.523,1845.876,1655.966,1863.397z"/>
				
					<linearGradient id="SVGID_00000121994485088998100470000015386377005780290728_" gradientUnits="userSpaceOnUse" x1="35.2779" y1="2293.7373" x2="1247.3137" y2="2293.7373" gradientTransform="matrix(0.955 -0.2967 0.2967 0.955 -171.6461 185.0003)">
					<stop  offset="0" style="stop-color:#FF9085"/>
					<stop  offset="1" style="stop-color:#FB6FBB"/>
				</linearGradient>
				<path style="opacity:0.2;fill:url(#SVGID_00000121994485088998100470000015386377005780290728_);" d="M1719.111,2066.663
					l25.501,82.088c5.434,17.491-3.228,34.417-18.882,39.281L624.926,2529.998c-15.654,4.863-32.382-4.176-37.816-21.667
					l-88.646-285.355c-5.443-17.521,2.844-35.653,18.499-40.516l140.738-43.721c36.646-1.968,74.21,3.685,106.98,23.708
					c110.785,67.688,119.873,157.771,405.952,54.729C1379.043,2142.103,1598.468,2062.033,1719.111,2066.663z"/>
			</g>
			<g>
				<path style="fill:#26264F;" d="M873.419,3196.32c2.522-2.16,5.359-1.395,18.093,0.818c15.651,2.721,18.907,2.876,24.12,5.991
					c1.277,0.762,9.855,5.888,8.896,8.962c-0.729,2.336-6.432,1.779-27.279,1.251c-18.448-0.469-23.21-0.267-25.636-4.022
					C869.146,3205.504,870.103,3199.16,873.419,3196.32z"/>
				
					<linearGradient id="SVGID_00000129904198409664521870000008397535855447209134_" gradientUnits="userSpaceOnUse" x1="887.6042" y1="3158.7405" x2="874.6682" y2="3243.1658">
					<stop  offset="0" style="stop-color:#311944"/>
					<stop  offset="1" style="stop-color:#A03976"/>
				</linearGradient>
				<path style="fill:url(#SVGID_00000129904198409664521870000008397535855447209134_);" d="M876.142,3183.116l2.723,17.911
					c3.442,1.827,6.779,1.96,9.986,0l-0.228-15.672L876.142,3183.116z"/>
				
					<linearGradient id="SVGID_00000168808390010622360700000018299859787772504974_" gradientUnits="userSpaceOnUse" x1="849.6123" y1="2856.4614" x2="1054.3573" y2="2856.4614">
					<stop  offset="0" style="stop-color:#AB316D"/>
					<stop  offset="1" style="stop-color:#792D3D"/>
				</linearGradient>
				<path style="fill:url(#SVGID_00000168808390010622360700000018299859787772504974_);" d="M857.078,2522.39
					c-1.162,25.429-1.143,63.963,6.355,109.844c14.158,86.638,38.373,97.849,43.055,164.187
					c3.95,55.978-9.355,103.774-25.136,160.454c-16.597,59.62-29.704,76.942-31.536,120.182
					c-2.022,47.688,11.357,87.103,22.695,112.568c6.354,0.304,12.71,0.604,19.064,0.907c7.705-33.774,22.133-84.018,50.837-139.801
					c30.99-60.225,62.937-96.419,74.439-111.66c40.837-54.095,65.154-163.454-18.156-408.511
					C951.49,2527.837,904.285,2525.114,857.078,2522.39z"/>
				
					<linearGradient id="SVGID_00000160185131737229662610000005963010925862373033_" gradientUnits="userSpaceOnUse" x1="1185.0599" y1="3159.3408" x2="1158.507" y2="3254.6597">
					<stop  offset="0" style="stop-color:#311944"/>
					<stop  offset="1" style="stop-color:#A03976"/>
				</linearGradient>
				<path style="fill:url(#SVGID_00000160185131737229662610000005963010925862373033_);" d="M1164.576,3185.824l6.603,27.982
					c0,0,4.291,3.96,11.815,0v-26.627L1164.576,3185.824z"/>
				<path style="fill:#26264F;" d="M1167.769,3212.608c2.522-2.159,5.359-1.393,18.093,0.819c15.65,2.721,18.907,2.876,24.12,5.99
					c1.277,0.763,9.855,5.889,8.896,8.963c-0.73,2.336-6.432,1.779-27.279,1.25c-18.448-0.467-23.21-0.266-25.636-4.021
					C1163.496,3221.793,1164.453,3215.449,1167.769,3212.608z"/>
				
					<linearGradient id="SVGID_00000174575956000663573000000012616849934628133284_" gradientUnits="userSpaceOnUse" x1="849.612" y1="2856.4614" x2="1054.3577" y2="2856.4614">
					<stop  offset="0" style="stop-color:#AB316D"/>
					<stop  offset="1" style="stop-color:#792D3D"/>
				</linearGradient>
				<path style="opacity:0.3;fill:url(#SVGID_00000174575956000663573000000012616849934628133284_);" d="M998.695,2530.561
					c-47.205-2.723-94.411-5.447-141.617-8.17c-1.162,25.429-1.143,63.963,6.355,109.844c4.519,27.649,10.06,47.58,15.666,64.109
					c3.696,3.755,7.611,7.407,12.021,10.785c36.789,28.173,68.075,16.715,83.064,42.213c14.792,25.16-11.118,44.056-8.17,108.936
					c1.881,41.375,12.76,41.181,8.17,64c-9.585,47.678-56.684,46.604-76.255,99.405c-12.311,33.218,2.387,44.279-10.894,81.702
					c-6.888,19.412-17.485,35.002-28.453,47.388c4.173,15.064,9.2,28.232,13.929,38.853c6.354,0.304,12.71,0.604,19.064,0.907
					c7.706-33.774,22.133-84.018,50.837-139.801c30.991-60.225,62.937-96.419,74.439-111.66
					C1057.689,2884.976,1082.006,2775.617,998.695,2530.561z"/>
				
					<linearGradient id="SVGID_00000088814660647988207490000010948448500952618942_" gradientUnits="userSpaceOnUse" x1="915.1927" y1="2855.5535" x2="1259.8212" y2="2855.5535">
					<stop  offset="0" style="stop-color:#AB316D"/>
					<stop  offset="1" style="stop-color:#792D3D"/>
				</linearGradient>
				<path style="fill:url(#SVGID_00000088814660647988207490000010948448500952618942_);" d="M930.61,2509.681
					c-12.996,27.165-15.359,49.204-15.417,63.434c-0.317,77.149,66.206,147.327,164.546,248.74
					c24.231,24.987,35.984,35.678,44.89,57.947c18.416,46.054-0.232,80.049-3.381,150.051c-2.944,65.469,3.576,93.731,9.532,113.021
					c7.745,25.085,18.112,44.479,25.872,57.192c10.894,0.454,21.787,0.907,32.681,1.362
					c25.877-41.104,64.525-115.662,69.879-213.819c4.462-81.807-16.222-143.021-42.851-221.836
					c-18.985-56.189-50.641-133.569-104.645-219.325C1051.349,2534.191,990.979,2521.936,930.61,2509.681z"/>
				
					<linearGradient id="SVGID_00000065791121259526433960000006508411766284530579_" gradientUnits="userSpaceOnUse" x1="953.3351" y1="2018.5193" x2="751.8037" y2="2518.2634">
					<stop  offset="0" style="stop-color:#311944"/>
					<stop  offset="1" style="stop-color:#A03976"/>
				</linearGradient>
				<path style="fill:url(#SVGID_00000065791121259526433960000006508411766284530579_);" d="M737.23,2462.407v9.252l15.598,3.479
					c2.068,0.462,4.088,1.118,6.033,1.96l6.696,2.898c13.29,5.753,28.618,4.176,40.458-4.164l0,0L737.23,2462.407z"/>
				
					<linearGradient id="SVGID_00000164496440786736875030000007876547225645212601_" gradientUnits="userSpaceOnUse" x1="1508.6771" y1="2437.301" x2="1516.4556" y2="2140.1553">
					<stop  offset="0" style="stop-color:#311944"/>
					<stop  offset="1" style="stop-color:#A03976"/>
				</linearGradient>
				<path style="fill:url(#SVGID_00000164496440786736875030000007876547225645212601_);" d="M1545.399,2182.377
					c-1.292-6.065-6.447,0.33-9.511-2.014c-6.341-4.854-17.322,12.371-24.511,19.009c-7.831,7.231-6.051,15.383-10.893,30.479
					c-2.622,8.17-7.545,19.503-17.703,32l17.703,19.064l20.718-31.356c3.984-3.423,9.738-9.37,13.62-18.322
					c1.489-3.434,2.424-6.671,3.018-9.508l4.668-14.029C1544.256,2197.16,1546.618,2188.106,1545.399,2182.377z"/>
				
					<linearGradient id="SVGID_00000062902075262887809960000014811475154851785899_" gradientUnits="userSpaceOnUse" x1="1120.277" y1="2089.4407" x2="856.107" y2="2707.6543">
					<stop  offset="0" style="stop-color:#AA80F9"/>
					<stop  offset="0.9964" style="stop-color:#6165D7"/>
				</linearGradient>
				<path style="fill:url(#SVGID_00000062902075262887809960000014811475154851785899_);" d="M743.635,2452.325
					c-0.767,10.04-1.534,20.083-2.302,30.122c-11.218,1.511-81.102,9.805-132.085-38.128
					c-62.101-58.389-41.896-149.191-38.128-166.128c26.356-118.442,152.602-164.41,167.218-169.473
					c52.716-18.263,95.96-14.072,177.293-6.187c60.438,5.859,120.84,11.715,186.583,40.154
					c143.425,62.042,162.287,163.775,253.273,165.934c31.165,0.74,77.397-10.115,135.028-69.639
					c8.663,5.897,17.326,11.79,25.99,17.687c-4.223,18.284-27.194,109.409-110.661,154.97
					c-91.786,50.104-219.452,24.756-305.114-68.744c-6.745,76.186,7.473,130.161,23.242,166.787
					c12.504,29.04,24.87,44.591,17.702,61.277c-12.936,30.114-74.702,29.463-156.596,28.596
					c-80.547-0.851-121.256-1.755-142.577-25.21c-21.712-23.885-10.411-45.582-22.379-132.947
					c-10.252-74.84-17.814-130.05-46.29-138.602c-26.171-7.859-73.801,22.556-78.764,69.043
					C691.485,2405.394,711.087,2438.394,743.635,2452.325z"/>
				
					<linearGradient id="SVGID_00000038372403355282615290000011527218110125798579_" gradientUnits="userSpaceOnUse" x1="1120.277" y1="2089.4407" x2="856.107" y2="2707.6543">
					<stop  offset="0" style="stop-color:#AA80F9"/>
					<stop  offset="0.9964" style="stop-color:#6165D7"/>
				</linearGradient>
				<path style="fill:url(#SVGID_00000038372403355282615290000011527218110125798579_);" d="M743.635,2452.325
					c-0.767,10.04-1.534,20.083-2.302,30.122c-11.218,1.511-81.102,9.805-132.085-38.128
					c-62.101-58.389-41.896-149.191-38.128-166.128c26.356-118.442,152.602-164.41,167.218-169.473
					c52.716-18.263,95.96-14.072,177.293-6.187c60.438,5.859,120.84,11.715,186.583,40.154
					c143.425,62.042,162.287,163.775,253.273,165.934c31.165,0.74,77.397-10.115,135.028-69.639
					c8.663,5.897,17.326,11.79,25.99,17.687c-4.223,18.284-27.194,109.409-110.661,154.97
					c-91.786,50.104-219.452,24.756-305.114-68.744c-6.745,76.186,7.473,130.161,23.242,166.787
					c12.504,29.04,24.87,44.591,17.702,61.277c-12.936,30.114-74.702,29.463-156.596,28.596
					c-80.547-0.851-121.256-1.755-142.577-25.21c-25.507-28.061-5.904-54.968-22.379-132.947
					c-2.593-12.274-28.701-131.716-72.098-134.102c-23.293-1.279-49.369,31.28-52.956,64.543
					C691.431,2405.564,711.073,2438.553,743.635,2452.325z"/>
				
					<linearGradient id="SVGID_00000034054141584250747220000002877661338316100513_" gradientUnits="userSpaceOnUse" x1="779.5398" y1="2086.4741" x2="934.5256" y2="2086.4741">
					<stop  offset="0" style="stop-color:#311944"/>
					<stop  offset="1" style="stop-color:#A03976"/>
				</linearGradient>
				<path style="fill:url(#SVGID_00000034054141584250747220000002877661338316100513_);" d="M841.419,2042.617
					c3.871,38.687-3.277,52.409-11.632,57.075c-11.384,6.356-36.713,2.441-48.71,11.01c-0.567,0.404-1.589,1.135-1.535,2.104
					c0.229,4.019,20.626,6.428,47.579,12.875c31.319,7.489,92.209,4.766,104.658,0c0.874-0.336,2.618-1.069,2.74-2.26
					c0.493-4.814-26.955-2.921-43.057-19.186c-12.045-12.168-7.511-24.165-24.878-43.916c-4.069-4.628-7.887-8.03-10.526-10.213
					C851.178,2047.609,846.299,2045.114,841.419,2042.617z"/>
				<g>
					<g>
						
							<linearGradient id="SVGID_00000108293050381782912720000011546241628818455730_" gradientUnits="userSpaceOnUse" x1="996.0394" y1="2134.9919" x2="910.754" y2="2014.1709" gradientTransform="matrix(-1 0 0 1 1795.049 0)">
							<stop  offset="0" style="stop-color:#311944"/>
							<stop  offset="1" style="stop-color:#A03976"/>
						</linearGradient>
						<path style="fill:url(#SVGID_00000108293050381782912720000011546241628818455730_);" d="M868.844,2078.076
							c2.883-1.583,26.307-4.428,29.535-17.026c4.385-17.099-10.984-37.911-12.898-41.261c-8.016-14.02-10.031-15.913-13.759-18.29
							l-5.172-3.032c0,0-0.299-0.113-0.612-0.217c-3.302-1.092-14.471-1.179-16.721-0.645c-7.189,1.707-14.215,31.308-11.08,72.864
							c-0.264,1.591-0.516,3.196-0.759,4.815C836.746,2079.493,869.056,2079.558,868.844,2078.076z"/>
						<path style="fill:#26264F;" d="M890.876,1995.823c-2.701,7.844-13.401,15.946-18.18,19.563c-0.7,0.531-2.72,2.32-4.551,5.205
							c-0.267,0.419-0.499,0.909-0.702,1.539c-2.64,8.187,10.492,17.453,8.081,21.147c-1.748,2.68-10.606-0.65-11.597,1.65
							c-0.935,2.167,6.46,6.441,5.401,9.034c-0.8,1.96-5.329,0.285-8.093,3.323c-1.376,1.508-0.936,2.672-2.329,7.228
							c-0.789,2.576-1.908,5.402-2.789,6.979c-4.284,7.669-16.837,10.717-19.334,7.744c-0.695-0.83-0.132-1.551-0.884-4.367
							c0,0-0.699-2.61-2.594-5.604c-2.708-4.278-9.079-7.238-15.539-11.671c-11.962-8.212-15.326-15.363-16.341-17.783
							c-0.114-0.27-0.215-0.522-0.303-0.75c-0.173-0.41-0.321-0.823-0.448-1.234c-2.704-8.75,4.216-18.18,7.947-22.574
							c5.34-6.232,14.328-15.48,27.503-23.719c3.584-2.242,38.439-23.757,51.22-13.119
							C891.907,1982.212,892.709,1990.495,890.876,1995.823z"/>
						
							<linearGradient id="SVGID_00000043423814441922774250000012411393257504864935_" gradientUnits="userSpaceOnUse" x1="990.0947" y1="2139.1855" x2="904.8101" y2="2018.3657" gradientTransform="matrix(-1 0 0 1 1795.049 0)">
							<stop  offset="0" style="stop-color:#311944"/>
							<stop  offset="1" style="stop-color:#A03976"/>
						</linearGradient>
						<path style="fill:url(#SVGID_00000043423814441922774250000012411393257504864935_);" d="M870.822,2040.353
							c-3.256-4.27-8.716-0.067-8.622,5.551c0.096,5.616,5.669,11.333,10.922,10.104
							C878.378,2054.781,875.204,2046.099,870.822,2040.353z"/>
					</g>
				</g>
				
					<linearGradient id="SVGID_00000080901246749446309230000001027962517441291155_" gradientUnits="userSpaceOnUse" x1="1019.4178" y1="2046.3419" x2="755.2469" y2="2664.5571">
					<stop  offset="0" style="stop-color:#AA80F9"/>
					<stop  offset="0.9964" style="stop-color:#6165D7"/>
				</linearGradient>
				<path style="opacity:0.3;fill:url(#SVGID_00000080901246749446309230000001027962517441291155_);" d="M1121.249,2565.511
					c-18.355,8.744-43.875,8.239-58.553-5.447c-22.81-21.269,0.589-60.618-23.149-76.255c-21.69-14.29-42.81,4.561-62.638-8.17
					c-34.144-21.923,4.807-93.018-31.319-133.447c-29.771-33.316-73.074-3.888-108.936-38.128
					c-40.207-38.388-8.46-97.045-44.936-122.553c-30.503-21.333-85.629-3.336-118.468,20.425
					c-55.222,39.958-58.808,104.464-84.426,103.49c-5.679-0.216-12.53-3.718-20.154-14.957
					c-5.511,31.127-12.279,104.151,40.58,153.851c50.983,47.933,120.867,39.639,132.085,38.128
					c0.768-10.04,1.535-20.082,2.302-30.122c-32.562-13.772-52.204-46.761-48.567-80.487c3.587-33.263,29.664-65.822,52.956-64.543
					c43.397,2.386,69.506,121.828,72.1,134.102c16.473,77.979-3.13,104.886,22.378,132.947
					c21.321,23.455,62.031,24.359,142.577,25.21c81.894,0.867,143.66,1.519,156.596-28.596c3.084-7.176,2.424-14.205-0.176-22.125
					C1136.071,2555.848,1129.289,2561.68,1121.249,2565.511z"/>
			</g>
		</g>
		<g>
			<g>
				
					<linearGradient id="SVGID_00000088814331420759925410000016599998387990300037_" gradientUnits="userSpaceOnUse" x1="2564.6016" y1="1690.3834" x2="2079.428" y2="2082.7549">
					<stop  offset="0" style="stop-color:#AA80F9"/>
					<stop  offset="0.9964" style="stop-color:#6165D7"/>
				</linearGradient>
				<path style="fill:url(#SVGID_00000088814331420759925410000016599998387990300037_);" d="M2851.748,2021.027
					c0,26.137-19.252,49.417-40.814,49.417h-748.291c-21.562,0-39.601-23.281-39.601-49.417v-457.47
					c0-26.137,18.039-45.584,39.601-45.584h748.291c21.562,0,40.814,19.447,40.814,45.584V2021.027z"/>
				
					<linearGradient id="SVGID_00000005252269505882479490000016590645465309607074_" gradientUnits="userSpaceOnUse" x1="2390.9753" y1="1845.6549" x2="3439.4976" y2="1042.9808">
					<stop  offset="0" style="stop-color:#AA80F9"/>
					<stop  offset="0.9964" style="stop-color:#6165D7"/>
				</linearGradient>
				<path style="fill:url(#SVGID_00000005252269505882479490000016590645465309607074_);" d="M2872.465,1563.571v457.466
					c0,17.536-7.731,33.847-19.41,42.305c-5.727,4.165-12.254,7.103-19.347,7.103h-748.291c-21.57,0-41.657-23.283-41.657-49.408
					v-457.466c0-26.158,20.088-45.597,41.657-45.597h748.291C2855.278,1517.974,2872.465,1537.413,2872.465,1563.571z"/>
				<g>
					<path style="fill:#FFFFFF;" d="M2754.524,1984.7l-145.09-204.313c-1.461-2.057-3.936-3.295-6.589-3.295
						s-5.13,1.237-6.591,3.293l-83.437,117.453l-136.658-192.436c-1.461-2.057-3.936-3.294-6.589-3.295
						c-2.653,0-5.128,1.238-6.589,3.294L2164.603,1984.7c-1.599,2.251-1.739,6.069-0.361,8.444c1.375,2.375,4.046,4.789,6.95,4.789
						h271.86h139.517h165.364c2.905,0,5.575-2.414,6.95-4.789C2756.259,1990.77,2756.121,1986.952,2754.524,1984.7z"/>
					<circle style="fill:#FFFFFF;" cx="2585.308" cy="1652.161" r="62.522"/>
				</g>
				<g style="opacity:0.2;">
					
						<linearGradient id="SVGID_00000096036131301802935450000000434042849002367875_" gradientUnits="userSpaceOnUse" x1="2043.7592" y1="1794.2094" x2="2853.1965" y2="1794.2094">
						<stop  offset="0" style="stop-color:#AA80F9"/>
						<stop  offset="0.9964" style="stop-color:#6165D7"/>
					</linearGradient>
					<path style="fill:url(#SVGID_00000096036131301802935450000000434042849002367875_);" d="M2853.197,2063.342
						c-5.727,4.165-12.396,7.103-19.489,7.103h-748.291c-21.57,0-41.657-23.283-41.657-49.408v-457.466
						c0-26.158,20.088-45.597,41.657-45.597h7.547c13.926,24.171,31.168,56.813,52.576,85.737
						c196.28,265.09,506.561,188.611,685.826,428.552C2839.466,2043.096,2846.69,2053.321,2853.197,2063.342z"/>
				</g>
			</g>
			<g>
				
					<linearGradient id="SVGID_00000064348997697668123360000007918694280569430416_" gradientUnits="userSpaceOnUse" x1="2869.3943" y1="1956.4316" x2="2902.6335" y2="2192.6677">
					<stop  offset="0" style="stop-color:#FFC444"/>
					<stop  offset="0.9964" style="stop-color:#F36F56"/>
				</linearGradient>
				<path style="fill:url(#SVGID_00000064348997697668123360000007918694280569430416_);" d="M2851.805,1978.219v-45.442
					c0,0-6.532-9.701-9.962-33.718c-3.431-24.016,2.802-14.494,5.861-4.503c0.853,2.786,2.62,5.148,4.726,7.109
					c5.292,4.926,13.987,1.704,15.01-5.453l4.3-30.089c0,0,17.449,17.841,4.823,62.47c-3.953,13.971,0,47.676,0,47.676
					L2851.805,1978.219z"/>
				
					<linearGradient id="SVGID_00000104707922478040951800000000882279616248492196_" gradientUnits="userSpaceOnUse" x1="2052.4126" y1="2071.3831" x2="2085.6514" y2="2307.6162">
					<stop  offset="0" style="stop-color:#FFC444"/>
					<stop  offset="0.9964" style="stop-color:#F36F56"/>
				</linearGradient>
				<path style="fill:url(#SVGID_00000104707922478040951800000000882279616248492196_);" d="M2056.014,2014.385l-11.447-44.245
					c0,0,11.007-16.976,5.724-34.307c-5.284-17.332-2.107-11.159-6.367,0c-4.259,11.159-12.673-7.736-19.244-24.949
					c-6.571-17.213-9.941,9.248-8.338,24.949c1.603,15.701,2.195,25.045,11.572,36.502c9.377,11.457,7.498,52.201,7.498,52.201
					L2056.014,2014.385z"/>
				<path style="fill:#26264F;" d="M2705.675,3232.409c0.366-9.749,23.858-7.789,39.252-6.313
					c15.396,1.476,22.174,7.655,24.58,13.426c2.406,5.77,0.599,20.016-13.622,14.045
					C2744.211,3248.666,2705.351,3241.027,2705.675,3232.409z"/>
				
					<linearGradient id="SVGID_00000018199752935259475130000002523657287410206645_" gradientUnits="userSpaceOnUse" x1="2720.8882" y1="3125.3997" x2="2771.1182" y2="3274.8936">
					<stop  offset="0" style="stop-color:#FFC444"/>
					<stop  offset="0.9964" style="stop-color:#F36F56"/>
				</linearGradient>
				<path style="fill:url(#SVGID_00000018199752935259475130000002523657287410206645_);" d="M2733.977,3194.642l10.95,37.767
					c0,0,10.958,7.526,14.557,3.782l-4.079-43.527L2733.977,3194.642z"/>
				
					<linearGradient id="SVGID_00000087399044210738492470000018419429249493375919_" gradientUnits="userSpaceOnUse" x1="2656.5552" y1="3147.5605" x2="2706.4138" y2="3295.9497">
					<stop  offset="0" style="stop-color:#FFC444"/>
					<stop  offset="0.9964" style="stop-color:#F36F56"/>
				</linearGradient>
				<polygon style="fill:url(#SVGID_00000087399044210738492470000018419429249493375919_);" points="2656.615,3172.295 
					2692.878,3188.113 2686.79,3206.462 2650.475,3197.016 				"/>
				<path style="fill:#26264F;" d="M2654.55,3243.507c0,0,24.164,6.251,34.852-8.028c6.873-9.181,12.593-24.775,15.8-34.738
					c1.742-5.41-0.995-11.222-6.274-13.326c-7.666-3.056-18.092-6.353-22.536-3.853c-7.435,4.182-0.465,31.979-3.718,39.224
					C2669.421,3230.031,2653.622,3234.678,2654.55,3243.507z"/>
				
					<linearGradient id="SVGID_00000152230082512458468100000010148805922634943111_" gradientUnits="userSpaceOnUse" x1="2859.4973" y1="3048.7466" x2="2623.6587" y2="2782.835">
					<stop  offset="0" style="stop-color:#444B8C"/>
					<stop  offset="0.9964" style="stop-color:#3E4177"/>
				</linearGradient>
				<path style="fill:url(#SVGID_00000152230082512458468100000010148805922634943111_);" d="M2598.199,2607.024
					c5.464,87.608,17.53,189.101,41.549,300.338c25.038,115.952,57.568,217.035,90.22,301.525c3.15,1.507,8.762,3.689,16.067,3.899
					c8.551,0.246,15.086-2.336,18.359-3.899c5.932-45.158,8.987-83.278,10.684-111.588c4.485-74.765,6.52-113.055-3.661-157.542
					c-9.553-41.745-17.232-38.488-27.204-84.627c-8.867-41.032-9.059-72.592-9.075-118.806
					c-0.011-31.732,1.442-74.588,7.572-125.444C2694.54,2609.596,2646.37,2608.309,2598.199,2607.024z"/>
				
					<linearGradient id="SVGID_00000145028836151429796540000016181276468992524969_" gradientUnits="userSpaceOnUse" x1="2859.4973" y1="3048.7466" x2="2623.6584" y2="2782.8347">
					<stop  offset="0" style="stop-color:#444B8C"/>
					<stop  offset="0.9964" style="stop-color:#3E4177"/>
				</linearGradient>
				<path style="opacity:0.3;fill:url(#SVGID_00000145028836151429796540000016181276468992524969_);" d="M2734.716,3178.023
					c-9.602-30.923,9.329-45.045,7.123-84.285c-2.693-47.941-32.217-49.374-41.549-103.278c-7.498-43.318,10.758-47.06,5.935-99.717
					c-5.124-55.963-27.169-67.31-22.555-100.904c2.566-18.678,13.459-44.155,51.647-71.901c0.511-29.212,2.37-65.389,7.392-107.058
					c-48.17-1.284-96.34-2.571-144.511-3.856c5.464,87.608,17.53,189.101,41.549,300.338
					c25.038,115.952,57.568,217.035,90.22,301.525c3.15,1.507,8.762,3.689,16.067,3.899c3.876,0.112,7.267-0.394,10.198-1.087
					C2747.125,3202.868,2739.002,3191.823,2734.716,3178.023z"/>
				
					<linearGradient id="SVGID_00000032609237396383907630000013143602471119696059_" gradientUnits="userSpaceOnUse" x1="2562.9265" y1="2897.1763" x2="2214.709" y2="2832.2815">
					<stop  offset="0" style="stop-color:#444B8C"/>
					<stop  offset="0.9964" style="stop-color:#3E4177"/>
				</linearGradient>
				<path style="fill:url(#SVGID_00000032609237396383907630000013143602471119696059_);" d="M2480.675,2591.592
					c-1.753,21.112-5.194,53.077-12.584,91.465c-16.663,86.562-35.791,114.287-40.835,170.886
					c-5.881,65.998,12.139,117.945,18.994,137.704c46.793,134.885,175.282,197.668,209.283,213.044
					c3.84-12.45,7.68-24.902,11.519-37.352c-8.553-11.44-21.223-29.854-33.17-54.248c-20.397-41.648-21.769-66.186-35.682-107.199
					c-25.1-73.993-44.176-63.515-48.759-101.189c-7.262-59.706,40.916-83.812,84.372-197.962
					c12.453-32.71,19.733-60.245,23.742-77.162C2598.595,2616.917,2539.635,2604.254,2480.675,2591.592z"/>
				
					<linearGradient id="SVGID_00000001658760773302556840000006498025205486119825_" gradientUnits="userSpaceOnUse" x1="2396.2087" y1="1819.7328" x2="2613.0532" y2="2615.8865">
					<stop  offset="0" style="stop-color:#FF9085"/>
					<stop  offset="1" style="stop-color:#FB6FBB"/>
				</linearGradient>
				<path style="fill:url(#SVGID_00000001658760773302556840000006498025205486119825_);" d="M2843.93,1960.05
					c12.267-1.978,24.534-3.957,36.8-5.935c15.402,21.662,59.778,90.137,51.046,181.628c-2.068,21.683-11.02,93.626-71.837,150.862
					c-43.546,40.983-91.958,53.862-114.144,58.303c-0.039,106.554,1.978,173.746,5.64,213.961
					c0.442,4.848,4.219,45.537-1.287,98.013c-1.677,15.991-2.56,24.076-4.748,28.491c-30.356,61.261-204.387,12.712-251.396-7.602
					c-12.222-5.282-24.638-12.63-29.949-25.637c-6.823-16.713-0.282-31.862,2.374-45.11c6.523-32.531-12.815-57.088-51.595-120.199
					c-16.398-26.687-40.211-66.751-68.022-118.762c-32.191,9.392-108.057,26.221-182.327-9.209
					c-109.131-52.062-171.406-196.249-139.66-352.506c11.08-3.165,22.16-6.332,33.239-9.497
					c7.333,30.323,21.472,71.152,50.433,112.333c17.572,24.984,32.206,45.791,57.594,57.424
					c39.864,18.265,75.267-0.28,127.021-13.058c81.549-20.132,149.736-12.62,232.568-3.492
					c90.493,9.973,115.294,28.56,181.458,16.063c29.428-5.558,66.268-12.997,96.43-42.249
					C2862.905,2066.329,2846.394,1972.879,2843.93,1960.05z"/>
				
					<linearGradient id="SVGID_00000061473474009107504900000010472297240079708307_" gradientUnits="userSpaceOnUse" x1="2495.3274" y1="2126.8713" x2="2534.5022" y2="2242.4167">
					<stop  offset="0" style="stop-color:#FFC444"/>
					<stop  offset="0.9964" style="stop-color:#F36F56"/>
				</linearGradient>
				<path style="fill:url(#SVGID_00000061473474009107504900000010472297240079708307_);" d="M2505.834,2079.119
					c0,0-5.426,21.721,2.218,31.457c7.643,9.734,33.166,47.045,41.476,48.867c4.734,1.038,16.595,2.833,25.925,4.186
					c4.912,0.711,5.954,7.472,1.401,9.448c-9.28,4.028-25.646,8.08-53.75,7.776c-40.621-0.439-73.295-15.895-87.539-23.903
					c-2.023-1.138-1.065-4.206,1.249-4.032l18.281,1.374c15.656,1.178,28.526-12.167,26.783-27.771l-1.136-10.162L2505.834,2079.119
					z"/>
				<g>
					<g>
						
							<linearGradient id="SVGID_00000053542481506200620950000002906436116498146705_" gradientUnits="userSpaceOnUse" x1="2474.3354" y1="3563.2603" x2="2513.5098" y2="3678.8049" gradientTransform="matrix(1 0 0 1 514.5802 0)">
							<stop  offset="0" style="stop-color:#FFC444"/>
							<stop  offset="0.9964" style="stop-color:#F36F56"/>
						</linearGradient>
						<path style="fill:url(#SVGID_00000053542481506200620950000002906436116498146705_);" d="M2489.069,2122.846
							c-2.513-1.38-22.934-3.86-25.748-14.843c-3.823-14.906,9.575-33.05,11.244-35.97c6.988-12.222,8.745-13.874,11.995-15.945
							l4.509-2.643c0,0,0.261-0.099,0.534-0.189c2.878-0.952,12.616-1.028,14.577-0.562c6.267,1.487,12.393,27.294,9.659,63.522
							c0.23,1.387,0.45,2.786,0.662,4.198C2517.051,2124.08,2488.884,2124.138,2489.069,2122.846z"/>
						<path style="fill:#26264F;" d="M2469.862,2051.14c-0.885,4.428,10.838,13.245,15.849,17.053
							c0.61,0.463,2.371,2.024,3.968,4.538c0.233,0.366,0.435,0.793,0.612,1.342c2.301,7.137-9.146,15.217-7.045,18.435
							c1.524,2.337,9.246-0.566,10.11,1.44c0.815,1.888-5.632,5.615-4.709,7.877c0.696,1.707,4.646,0.248,7.055,2.896
							c1.199,1.314,0.816,2.331,2.03,6.302c0.688,2.244,1.664,4.708,2.431,6.084c3.735,6.685,14.678,9.344,16.855,6.751
							c0.607-0.723,0.114-1.351,0.771-3.806c0,0,0.61-2.277,2.262-4.885c2.36-3.731,7.914-6.312,13.544-10.177
							c10.43-7.157,13.362-13.392,14.247-15.502c0.1-0.236,0.187-0.455,0.264-0.654c0.151-0.357,0.28-0.716,0.39-1.075
							c2.203-7.19-6.927-19.68-6.927-19.68c-7.327-9.856-16.581-16.471-23.977-20.677c-13.527-2.662-24.543-2.326-32.172-1.482
							C2479.212,2046.607,2470.563,2047.634,2469.862,2051.14z"/>
						<path style="fill:#26264F;" d="M2465.646,2088.434c0,0,8.649,10.379,20.073-2.085l5.64,1.665c0,0-13.79,30.341-16.74,30.341
							c-2.95,0-11.562-1.962-11.562-1.962c-3.228-1.351-5.047-4.811-4.304-8.231
							C2460.107,2101.925,2463.65,2092.83,2465.646,2088.434z"/>
						
							<linearGradient id="SVGID_00000077293428239763836510000016688906861375734152_" gradientUnits="userSpaceOnUse" x1="3319.1338" y1="4262.7588" x2="3420.0366" y2="4425.3911" gradientTransform="matrix(1 0 0 1 514.5802 0)">
							<stop  offset="0" style="stop-color:#FFC444"/>
							<stop  offset="0.9964" style="stop-color:#F36F56"/>
						</linearGradient>
						<path style="fill:url(#SVGID_00000077293428239763836510000016688906861375734152_);" d="M2488.462,2089.96
							c2.84-3.723,7.598-0.058,7.517,4.84c-0.083,4.896-4.941,9.879-9.521,8.807
							C2481.875,2102.537,2484.641,2094.969,2488.462,2089.96z"/>
					</g>
				</g>
				
					<linearGradient id="SVGID_00000054239871926860399930000013837252327959552691_" gradientUnits="userSpaceOnUse" x1="2243.3794" y1="1861.3579" x2="2460.2246" y2="2657.5142">
					<stop  offset="0" style="stop-color:#FF9085"/>
					<stop  offset="1" style="stop-color:#FB6FBB"/>
				</linearGradient>
				<path style="opacity:0.3;fill:url(#SVGID_00000054239871926860399930000013837252327959552691_);" d="M2699.103,2667.566
					c-58.956,20.776-127.667-9.601-144.827-51.046c-12.684-30.638,14.419-59.864-4.748-91.407
					c-18.457-30.375-51.79-16.766-74.788-47.484c-25.063-33.478,4.432-63.132-17.807-108.027
					c-16.731-33.775-56.793-64.171-96.156-64.104c-46.787,0.079-64.262,43.151-104.466,34.426
					c-21-4.556-20.513-17.239-49.858-37.988c-50.928-36.009-85.079-20.925-127.021-46.297
					c-12.324-7.457-26.077-18.889-38.872-37.267c25.055,63.634,68.405,113.993,123.925,140.48
					c74.269,35.43,150.135,18.602,182.327,9.209c27.812,52.01,51.624,92.075,68.022,118.762
					c38.781,63.111,58.119,87.667,51.595,120.199c-2.656,13.248-9.198,28.397-2.374,45.11c5.312,13.007,17.727,20.354,29.949,25.637
					c47.009,20.315,221.04,68.864,251.396,7.602c2.188-4.414,3.071-12.5,4.748-28.491c1.046-9.96,1.754-19.492,2.216-28.439
					C2740.23,2643.996,2723.099,2659.11,2699.103,2667.566z"/>
			</g>
		</g>
		<g>
			
				<linearGradient id="SVGID_00000036240373666133547610000015261266349410043543_" gradientUnits="userSpaceOnUse" x1="1383.9823" y1="2238.8916" x2="1793.0317" y2="3059.7556">
				<stop  offset="0" style="stop-color:#311944"/>
				<stop  offset="1" style="stop-color:#893976"/>
			</linearGradient>
			<path style="fill:url(#SVGID_00000036240373666133547610000015261266349410043543_);" d="M2028.971,2976.867
				c0-141.85-130.845-252.586-286.689-247.519c-88.751,2.886-165.968,42.896-214.183,101.958c-0.006-0.018-0.012-0.034-0.018-0.052
				c-0.299,0.367-0.578,0.749-0.876,1.117c-0.833,1.033-1.638,2.086-2.455,3.131c-1.489,1.906-2.956,3.824-4.387,5.767
				c-0.844,1.148-1.676,2.304-2.5,3.466c-1.375,1.939-2.716,3.899-4.033,5.873c-0.753,1.131-1.515,2.255-2.248,3.397
				c-1.467,2.282-2.88,4.594-4.267,6.92c-0.504,0.842-1.031,1.669-1.522,2.517c-1.83,3.153-3.585,6.345-5.265,9.574
				c-0.446,0.857-0.853,1.732-1.289,2.593c-1.223,2.423-2.418,4.858-3.557,7.322c-0.559,1.208-1.086,2.428-1.624,3.645
				c-0.962,2.18-1.896,4.371-2.79,6.581c-0.519,1.283-1.03,2.568-1.527,3.861c-0.87,2.267-1.696,4.552-2.494,6.848
				c-0.418,1.201-0.85,2.396-1.249,3.604c-0.951,2.889-1.835,5.803-2.671,8.735c-0.174,0.612-0.376,1.214-0.545,1.828
				c-0.976,3.537-1.857,7.107-2.662,10.701c-0.237,1.058-0.432,2.129-0.653,3.192c-0.539,2.578-1.047,5.164-1.497,7.769
				c-0.227,1.327-0.429,2.66-0.633,3.993c-0.371,2.41-0.703,4.83-0.995,7.262c-0.165,1.364-0.325,2.728-0.464,4.099
				c-0.261,2.564-0.461,5.143-0.634,7.729c-0.08,1.204-0.182,2.401-0.245,3.609c-0.191,3.779-0.31,7.574-0.31,11.397
				c0,91.026,55.129,171.32,137.779,214.311c7.601,3.954,15.438,7.595,23.492,10.904c4.032,1.657,8.12,3.23,12.259,4.717
				c29.093,10.452,60.759,16.647,94.063,17.62l0,0l0,0h0.002c4.589,0.134,9.153,0.155,13.696,0.09
				c1.534-0.022,3.05-0.107,4.579-0.152c3.004-0.087,6.01-0.177,8.993-0.35c1.824-0.106,3.628-0.27,5.443-0.407
				c2.664-0.202,5.329-0.404,7.973-0.673c1.937-0.197,3.858-0.443,5.784-0.676c2.5-0.303,4.999-0.613,7.479-0.975
				c1.981-0.289,3.946-0.615,5.914-0.942c2.401-0.399,4.795-0.814,7.174-1.268c1.992-0.38,3.973-0.784,5.949-1.203
				c2.329-0.493,4.647-1.012,6.954-1.558c1.979-0.468,3.952-0.948,5.913-1.454c2.281-0.588,4.545-1.212,6.803-1.852
				c1.943-0.55,3.885-1.1,5.808-1.687c0.71-0.217,1.438-0.401,2.146-0.623c-0.016-0.017-0.031-0.034-0.047-0.052
				C1950.668,3177.783,2028.971,3086.226,2028.971,2976.867z"/>
			<g>
				
					<linearGradient id="SVGID_00000130611813647555985140000007826625410569625488_" gradientUnits="userSpaceOnUse" x1="1624.5319" y1="2778.061" x2="2021.8442" y2="3514.9578">
					<stop  offset="0" style="stop-color:#FF9085"/>
					<stop  offset="1" style="stop-color:#FB6FBB"/>
				</linearGradient>
				<path style="fill:url(#SVGID_00000130611813647555985140000007826625410569625488_);" d="M2007.555,2976.903
					c0,141.485-130.178,252.378-285.242,247.848c-149.287-4.361-266.288-114.853-266.288-246.937
					c0-132.083,117-242.962,266.288-247.817C1877.378,2724.955,2007.555,2835.418,2007.555,2976.903z"/>
				<g>
					<path style="fill:#FFFFFF;" d="M1652.354,3045.43l-110.701-56.338v-18.144l110.701-64.101v30.882l-76.585,40.907l76.585,36.041
						V3045.43z"/>
					<path style="fill:#FFFFFF;" d="M1770.115,2881.84l-62.96,190.27l-31.626-0.322l62.461-189.514L1770.115,2881.84z"/>
					<path style="fill:#FFFFFF;" d="M1793.517,3015.104l80.904-36.924l-80.904-41.392v-31.431l117.987,64.661v19.001
						l-117.987,57.384V3015.104z"/>
				</g>
				<g style="opacity:0.3;">
					
						<linearGradient id="SVGID_00000000943046438886278430000010225385744110750137_" gradientUnits="userSpaceOnUse" x1="1515.4209" y1="2827.0327" x2="1901.3987" y2="3601.5977">
						<stop  offset="0" style="stop-color:#FF9085"/>
						<stop  offset="1" style="stop-color:#FB6FBB"/>
					</linearGradient>
					<path style="fill:url(#SVGID_00000000943046438886278430000010225385744110750137_);" d="M1789.751,3163.18
						c-33.649-74.08,0.37-142.533-45.063-190.047c-45.636-47.725-104.168-3.114-166.213-41.304
						c-23.728-14.605-49.942-42.55-69.314-100.188c-33.418,41.024-53.136,91.615-53.136,146.174
						c0,132.083,117,242.576,266.288,246.937c35.001,1.022,68.769-3.857,100.109-13.701
						C1806.938,3194.913,1796.721,3178.523,1789.751,3163.18z"/>
				</g>
			</g>
		</g>
	</g>
</g>
</svg>
